# xmcd CD database file
#
# Track frame offsets:
#	150
#	11980
#	31782
#	45510
#	62280
#	78007
#	92050
#	106880
#	118040
#	131797
#	148690
#	167992
#	183535
#	197995
#
# Disc length: 2832 seconds
#
# Revision: 0
# Processed by: cddbd v1.4PL0 Copyright (c) Steve Scherf et al.
# Submitted via: CDex 1.50
#
DISCID=bb0b0e0e
DTITLE=Paberky Marko Cermaka - Od Skalistych hor k Vysocine
DYEAR=1994
DGENRE=Country
TTITLE0=Tvrdy futraly
TTITLE1=Vzpominka na Brezen
TTITLE2=Tulackej kral
TTITLE3=Jdi az tam
TTITLE4=Mesicni plane
TTITLE5=Omlacenej hrnek
TTITLE6=Lasko ma
TTITLE7=Tulacka
TTITLE8=Stopy za Tebou
TTITLE9=Bila
TTITLE10=Marna cesta
TTITLE11=Sedla vrzani
TTITLE12=Deset tisic mil
TTITLE13=Nashwille Tennessee
EXTD=YEAR: 1994
EXTT0=
EXTT1=
EXTT2=
EXTT3=
EXTT4=
EXTT5=
EXTT6=
EXTT7=
EXTT8=
EXTT9=
EXTT10=
EXTT11=
EXTT12=
EXTT13=
PLAYORDER=
